HIERARCHY
ROOT Hips
{
	OFFSET -13.091600 -28.302996 44.698402
	CHANNELS 6 Xposition Yposition Zposition Zrotation Xrotation Yrotation
	JOINT Chest
	{
		OFFSET -0.673000 0.623899 5.369202
		CHANNELS 6 Xposition Yposition Zposition Zrotation Xrotation Yrotation
		JOINT Chest2
		{
			OFFSET 0.000000 0.000000 4.415001
			CHANNELS 6 Xposition Yposition Zposition Zrotation Xrotation Yrotation
			JOINT Neck
			{
				OFFSET 0.000000 0.000002 10.273300
				CHANNELS 6 Xposition Yposition Zposition Zrotation Xrotation Yrotation
				JOINT Head
				{
					OFFSET 0.000000 0.000000 2.173897
					CHANNELS 6 Xposition Yposition Zposition Zrotation Xrotation Yrotation
					End Site
					{
						OFFSET 0.000000 0.000000 9.961800
					}
				}
			}
			JOINT LeftCollar
			{
				OFFSET 2.359900 -0.565201 5.928101
				CHANNELS 6 Xposition Yposition Zposition Zrotation Xrotation Yrotation
				JOINT LeftShoulder
				{
					OFFSET 5.443700 0.000000 0.000000
					CHANNELS 6 Xposition Yposition Zposition Zrotation Xrotation Yrotation
					JOINT LeftElbow
					{
						OFFSET 0.000000 0.000000 -10.615799
						CHANNELS 6 Xposition Yposition Zposition Zrotation Xrotation Yrotation
						JOINT LeftWrist
						{
							OFFSET 0.000000 -0.000002 -13.110302
							CHANNELS 6 Xposition Yposition Zposition Zrotation Xrotation Yrotation
							End Site
							{
								OFFSET 0.000000 0.000000 -2.173901
							}
						}
					}
				}
			}
			JOINT RightCollar
			{
				OFFSET -2.636600 -1.718800 6.889698
				CHANNELS 6 Xposition Yposition Zposition Zrotation Xrotation Yrotation
				JOINT RightShoulder
				{
					OFFSET -4.139101 0.000000 0.000000
					CHANNELS 6 Xposition Yposition Zposition Zrotation Xrotation Yrotation
					JOINT RightElbow
					{
						OFFSET 0.000000 0.000000 -10.471802
						CHANNELS 6 Xposition Yposition Zposition Zrotation Xrotation Yrotation
						JOINT RightWrist
						{
							OFFSET 0.000000 0.000000 -12.281898
							CHANNELS 6 Xposition Yposition Zposition Zrotation Xrotation Yrotation
							End Site
							{
								OFFSET 0.000000 -0.000002 -2.173901
							}
						}
					}
				}
			}
		}
	}
	JOINT LeftHip
	{
		OFFSET 2.273400 0.176701 -2.518002
		CHANNELS 6 Xposition Yposition Zposition Zrotation Xrotation Yrotation
		JOINT LeftKnee
		{
			OFFSET 0.000000 -0.000002 -20.456402
			CHANNELS 6 Xposition Yposition Zposition Zrotation Xrotation Yrotation
			JOINT LeftAnkle
			{
				OFFSET 0.000000 -0.000002 -16.635300
				CHANNELS 6 Xposition Yposition Zposition Zrotation Xrotation Yrotation
				End Site
				{
					OFFSET 0.000000 -8.812399 0.000001
				}
			}
		}
	}
	JOINT RightHip
	{
		OFFSET -1.914800 0.018101 -2.699299
		CHANNELS 6 Xposition Yposition Zposition Zrotation Xrotation Yrotation
		JOINT RightKnee
		{
			OFFSET 0.000000 -0.000002 -20.148901
			CHANNELS 6 Xposition Yposition Zposition Zrotation Xrotation Yrotation
			JOINT RightAnkle
			{
				OFFSET 0.000000 -0.000002 -16.838301
				CHANNELS 6 Xposition Yposition Zposition Zrotation Xrotation Yrotation
				End Site
				{
					OFFSET 0.000000 -8.328398 0.000001
				}
			}
		}
	}
}
MOTION
Frames: 7
Frame Time: 0.041667
-31.042500 -25.721100 23.482698 -13.548128 12.727068 -6.727181 -0.672995 0.623901 5.369209 13.379007 -0.817119 11.238242 -0.000002 -0.000001 4.415003 -8.472112 -5.659125 -1.245237 0.000001 -0.000003 10.273302 63.987616 -4.188322 -6.922089 0.000007 -0.000006 2.173904 4.209216 -1.386394 6.989046 2.359897 -0.565206 5.928104 11.968178 -2.150343 11.218449 5.443689 -0.000003 -0.000001 -10.490302 -15.835063 -90.534588 0.000008 -0.000003 -10.615788 -115.111678 -155.277329 188.438608 -0.000000 -0.000008 -13.110292 40.940946 -13.090290 -14.277051 -2.636603 -1.718804 6.889704 -2.333630 -1.136150 17.550364 -4.139098 0.000000 -0.000002 261.994582 -134.097937 339.573701 0.000000 0.000003 -10.471795 -21.758681 -24.299440 -14.106360 0.000000 -0.000005 -12.281896 67.080524 13.561948 75.027565 2.273399 0.176697 -2.517999 -8.797133 -174.481335 -111.538970 -0.000002 -0.000003 -20.456398 -337.256573 -24.686013 -7.933227 0.000003 -0.000008 -16.635296 153.620421 21.379708 64.247935 -1.914795 0.018104 -2.699295 23.511328 183.626357 67.984349 0.000002 -0.000003 -20.148901 182.071533 0.867569 -125.506884 -0.000006 -0.000003 -16.838301 -56.318062 9.738963 -29.095756
-30.860296 -25.712097 23.795702 -13.691662 12.631839 -6.608150 -0.673007 0.623897 5.369210 13.443002 -0.438404 11.234152 0.000000 -0.000001 4.415003 -8.599486 -5.681201 -1.249945 0.000005 -0.000002 10.273305 64.093621 -4.193658 -6.854574 0.000005 -0.000005 2.173909 4.244916 -1.453194 7.085474 2.359902 -0.565203 5.928101 11.751892 -2.405225 11.157847 5.443695 -0.000008 -0.000000 -10.296091 -15.266246 -90.841796 0.000000 0.000000 -10.615793 -115.337812 -155.521153 188.283153 -0.000000 -0.000005 -13.110298 41.057947 -13.228739 -14.894035 -2.636595 -1.718804 6.889702 -1.954185 -0.624421 18.252591 -4.139099 -0.000001 -0.000005 260.247720 -132.977349 338.653702 -0.000000 0.000003 -10.471804 -21.089379 -23.302317 -13.021996 0.000003 -0.000008 -12.281893 64.383911 13.205811 75.029068 2.273398 0.176697 -2.517996 -9.959453 -173.394406 -111.484103 -0.000002 -0.000004 -20.456400 -336.081097 -26.222061 -8.475257 0.000003 -0.000007 -16.635294 153.934186 20.828650 64.161390 -1.914801 0.018104 -2.699294 23.696486 184.027918 68.723198 0.000001 0.000001 -20.148905 181.970392 1.449130 -124.520646 0.000007 -0.000001 -16.838295 -56.014747 10.155178 -28.941250
-30.665300 -25.705000 24.117002 -13.845653 12.532784 -6.496050 -0.672999 0.623900 5.369203 13.522356 -0.079910 11.240180 0.000004 -0.000005 4.415009 -8.711849 -5.701314 -1.253019 0.000003 -0.000005 10.273304 64.250667 -4.142265 -6.784231 0.000004 -0.000000 2.173909 4.253696 -1.489318 7.164648 2.359900 -0.565206 5.928104 11.611670 -2.639541 11.118640 5.443695 -0.000005 -0.000001 -10.159356 -14.829297 -91.123405 -0.000003 -0.000003 -10.615788 -115.612085 -155.830862 188.082892 0.000002 -0.000007 -13.110298 41.269652 -13.410159 -15.526432 -2.636603 -1.718808 6.889703 -1.399839 -0.147798 18.253566 -4.139097 -0.000000 -0.000002 258.314694 -132.460427 337.642561 -0.000002 -0.000006 -10.471807 -20.190833 -22.305923 -11.891836 0.000000 0.000000 -12.281904 61.568821 12.915128 74.772253 2.273397 0.176703 -2.518001 -11.053284 -172.348527 -111.428007 -0.000003 -0.000010 -20.456400 -335.005534 -27.700102 -9.123500 0.000001 -0.000008 -16.635296 154.292334 20.326271 64.094154 -1.914799 0.018103 -2.699301 23.911500 184.397950 69.482688 0.000006 -0.000001 -20.148905 181.897732 2.001790 -123.493112 0.000003 -0.000004 -16.838303 -55.730829 10.557568 -28.781065
-30.454399 -25.701998 24.445805 -14.001714 12.435182 -6.437633 -0.673000 0.623897 5.369212 13.616335 0.231364 11.286433 -0.000003 -0.000003 4.415006 -8.773466 -5.706622 -1.248079 0.000002 0.000000 10.273301 64.443982 -4.031000 -6.674676 0.000005 -0.000004 2.173899 4.062390 -1.487120 7.138254 2.359901 -0.565205 5.928100 11.438266 -2.830707 11.090741 5.443695 -0.000003 0.000004 -10.002397 -14.398018 -91.330216 -0.000002 -0.000001 -10.615793 -115.800953 -156.102676 187.861443 0.000003 -0.000005 -13.110293 41.588762 -13.583330 -16.254284 -2.636601 -1.718806 6.889695 -0.518657 0.602351 17.496523 -4.139085 0.000000 -0.000002 256.251622 -132.618300 336.978120 -0.000005 0.000000 -10.471806 -19.156206 -21.209653 -10.693001 0.000006 -0.000003 -12.281903 58.854080 12.706463 74.295881 2.273392 0.176698 -2.517995 -12.042523 -171.417503 -111.418137 -0.000002 -0.000005 -20.456400 -334.106435 -29.086613 -9.883185 0.000003 -0.000008 -16.635296 154.641384 19.778194 64.267244 -1.914801 0.018103 -2.699296 24.125244 184.738927 70.231147 0.000001 -0.000001 -20.148912 181.888443 2.631962 -122.436523 -0.000003 0.000003 -16.838301 -55.394815 10.972928 -28.496406
-30.225800 -25.702496 24.780600 -14.127511 12.253302 -6.519579 -0.673002 0.623899 5.369205 13.678507 0.618731 11.425632 0.000004 -0.000002 4.415009 -8.804933 -5.731098 -1.242889 0.000002 0.000002 10.273300 64.597948 -3.847837 -6.613525 -0.000002 -0.000003 2.173905 4.048389 -1.521175 7.222071 2.359900 -0.565197 5.928099 11.350603 -2.974488 11.115569 5.443693 -0.000002 0.000002 -9.939424 -13.983553 -91.537232 -0.000001 -0.000001 -10.615793 -116.035242 -156.383861 187.580777 -0.000001 -0.000001 -13.110295 42.122876 -13.667873 -16.887117 -2.636600 -1.718798 6.889697 0.081499 1.254532 17.581132 -4.139099 0.000001 -0.000000 254.212456 -131.921197 335.879279 0.000005 -0.000009 -10.471802 -18.052279 -20.026765 -9.473090 0.000008 0.000002 -12.281895 56.283300 12.629842 73.613586 2.273399 0.176697 -2.518003 -12.955871 -170.523555 -111.567076 0.000000 -0.000007 -20.456398 -328.852572 -31.257118 -8.002462 0.000002 -0.000008 -16.635300 150.972780 18.972925 64.076429 -1.914799 0.018097 -2.699296 24.285381 185.158970 70.916201 0.000004 -0.000004 -20.148911 181.861682 3.178855 -121.323230 0.000006 -0.000002 -16.838305 -55.131709 11.387438 -28.218981
-29.977797 -25.706095 25.120499 -14.295145 12.177899 -6.552438 -0.673002 0.623897 5.369213 13.796548 0.879081 11.545264 -0.000001 -0.000000 4.415010 -8.823768 -5.773318 -1.246594 0.000002 -0.000002 10.273305 64.771654 -3.658971 -6.559011 0.000002 -0.000004 2.173905 3.995244 -1.549269 7.311192 2.359899 -0.565206 5.928104 11.340028 -3.085989 11.155648 5.443696 -0.000004 0.000007 -9.951942 -13.691758 -91.744843 0.000002 -0.000001 -10.615791 -116.291197 -156.765163 187.273528 0.000003 -0.000004 -13.110296 42.669373 -13.713960 -17.362337 -2.636603 -1.718805 6.889701 0.652586 1.895904 17.557107 -4.139100 -0.000002 -0.000007 252.229133 -131.285197 334.704159 -0.000002 -0.000005 -10.471800 -16.925398 -18.764493 -8.278733 0.000001 -0.000001 -12.281902 53.971202 12.751120 72.748666 2.273397 0.176696 -2.517997 -13.728110 -169.845781 -111.668559 -0.000002 -0.000005 -20.456404 -326.051156 -32.871580 -7.415314 0.000001 -0.000005 -16.635296 149.432368 18.320246 63.976750 -1.914801 0.018097 -2.699300 24.498442 185.398505 71.611344 0.000005 -0.000004 -20.148912 181.889891 3.736764 -120.172206 -0.000002 -0.000002 -16.838301 -54.827049 11.902073 -27.889370
-29.709799 -25.713499 25.461302 -14.682093 11.645824 -6.569752 -0.672997 0.623900 5.369210 14.083305 1.593561 11.547423 0.000002 -0.000004 4.415003 -8.797330 -5.817709 -1.241292 0.000005 0.000001 10.273291 64.907786 -3.459768 -6.483157 0.000002 -0.000003 2.173892 3.949364 -1.576306 7.349467 2.359899 -0.565206 5.928096 11.346713 -3.181356 11.237621 5.443691 -0.000007 0.000001 -10.016076 -13.596726 -91.991160 0.000012 -0.000003 -10.615788 -116.508971 -157.274231 186.997479 0.000000 -0.000007 -13.110298 43.053944 -13.702885 -17.596502 -2.636600 -1.718803 6.889698 2.016316 3.154503 17.789183 -4.139093 -0.000002 0.000000 249.442907 -130.287224 333.698099 0.000001 0.000000 -10.471802 -15.584257 -17.448336 -7.035296 0.000003 -0.000001 -12.281896 51.318838 12.928587 71.950633 2.273399 0.176700 -2.518002 -14.266695 -168.829599 -111.924951 0.000003 -0.000009 -20.456402 -323.291432 -34.416114 -6.730947 -0.000000 -0.000006 -16.635296 147.846644 17.657408 63.812005 -1.914796 0.018098 -2.699299 24.882207 186.018549 72.494385 0.000004 -0.000002 -20.148911 182.002521 4.407997 -118.988767 -0.000002 -0.000001 -16.838303 -54.487609 12.361180 -27.386188
